# xmcd
#
# Track frame offsets:
#	150
#	14093
#	32314
#	48659
#	68612
#	89253
#	104806
#	124068
#	149724
#	165752
#	183088
#	200483
#	232687
#	248290
#	263856
#	290570
#	306847
#
# Disc length: 4295 seconds
#
# Revision: 2
# Processed by: cddbd v1.5.2PL0 Copyright (c) Steve Scherf et al.
# Submitted via: EZCDAudioConverter 6.0.5.1
#
DISCID=e510c511
DTITLE=BLACK VELVET CD 2
DYEAR=2005
DGENRE=blues
TTITLE0=O'Jays - Back Stabbers
TTITLE1=David Grant and Jacki Graham - Could It Be I'm Falling In Love
TTITLE2=Usher - You Make Me Wanna...
TTITLE3=TLC - Creep
TTITLE4=Charles And Eddie - Would I Lie To You
TTITLE5=Peabo Bryson and Roberta Flack - Tonight I Celebrate My Love
TTITLE6=Freddie Jackson - You Are My Lady
TTITLE7=Earth Wind and Fire - That's The Way Of The World
TTITLE8=Diana King - I Say A Little Player
TTITLE9=Natalie Cole - Miss You Like Crazy
TTITLE10=Rose Royce - Love Don't Live Here Anymore
TTITLE11=Blue Magic - Just Don't Want To Be Lonely
TTITLE12=Aretha Franklin - Let It Be
TTITLE13=The Spinners - Love Don't Love Nobody
TTITLE14=Deniece Williams - Free
TTITLE15=Luther Vandross - So Amazing
TTITLE16=Persuaders - A Thin Line Between Love And Hate
EXTD=
EXTT0=
EXTT1=
EXTT2=
EXTT3=
EXTT4=
EXTT5=
EXTT6=
EXTT7=
EXTT8=
EXTT9=
EXTT10=
EXTT11=
EXTT12=
EXTT13=
EXTT14=
EXTT15=
EXTT16=
PLAYORDER=
